<svg xmlns="http://www.w3.org/2000/svg" width="101" height="101" fill="none">
    <path
        d="M63.14 37.15a9.7 9.7 0 0 1-9.75 9.66 9.7 9.7 0 0 1-9.75-9.66 9.7 9.7 0 0 1 9.75-9.66 9.7 9.7 0 0 1 9.75 9.66Z"
        fill="#FFC131" />
    <path
        d="M46.8 64.28a9.7 9.7 0 0 1-9.75 9.66 9.7 9.7 0 0 1-9.75-9.66 9.7 9.7 0 0 1 9.75-9.66 9.7 9.7 0 0 1 9.75 9.66Z"
        fill="#24C8DB" />
    <path
        d="M29.62 28.45C12.8 31.85.14 46.6.14 64.28c0 20.2 16.53 36.58 36.91 36.58a36.89 36.89 0 0 0 35.25-25.7 43.07 43.07 0 0 1-14.12 4.1 26.02 26.02 0 0 1-21.13 10.76c-14.35 0-25.98-11.52-25.98-25.74 0-11.1 7.1-20.56 17.04-24.17-.4-3.93.1-7.92 1.51-11.66Z"
        fill="#24C8DB" />
    <path fill-rule="evenodd" clip-rule="evenodd"
        d="M60.82 72.98c16.83-3.4 29.48-18.16 29.48-35.83C90.3 16.95 73.78.57 53.4.57a36.89 36.89 0 0 0-35.26 25.7 43.07 43.07 0 0 1 14.12-4.1A26.02 26.02 0 0 1 53.4 11.4c14.35 0 25.98 11.53 25.98 25.75 0 11.1-7.1 20.56-17.04 24.17.4 3.93-.1 7.92-1.5 11.66Z"
        fill="#FFC131" />
</svg>