<svg xmlns="http://www.w3.org/2000/svg" width="32" height="32" viewBox="0 0 40 40"
    class="mr-1.5 md:mr-2 size-7 md:size-8">
    <g transform="translate(-248 -15)">
        <path fill="#fff" d="M268 15a20 20 0 1 1-20 20 20 20 0 0 1 20-20"></path>
        <circle cx="6" cy="6" r="6" fill="#fff" transform="translate(263 29)"></circle>
        <path
            d="M266.497 15.026a19.7 19.7 0 0 0-6.976 1.842 20.16 20.16 0 0 0-8.267 7.156 20.12 20.12 0 0 0-2.823 15.123 20.4 20.4 0 0 0 4.024 8.447 26 26 0 0 0 3.283 3.213 20.3 20.3 0 0 0 12.261 4.194 20.085 20.085 0 0 0 18.726-12.971 19.6 19.6 0 0 0 1.261-6.346 20.017 20.017 0 0 0-16.885-20.468 32 32 0 0 0-4.604-.19m3.363 1.151a18.78 18.78 0 0 1 13.848 8.327 18.85 18.85 0 0 1-1.311 22.72 10 10 0 0 1-2.012 1.972c-.04 0-.08-.19-.08-.43a2.87 2.87 0 0 0-2.042-2.322 11 11 0 0 0-1.361-.2c-2.182-.16-3.563-.44-4.013-.821-.27-.23-.29-.3-.29-.971a1.55 1.55 0 0 0-.751-1.571 33.8 33.8 0 0 0-6.456-.591 1.66 1.66 0 0 0-.861.981 2.9 2.9 0 0 1-.761 1.291c-.681.661-1.581.891-4.584 1.181-.911.09-1.942.22-2.3.31a2.89 2.89 0 0 0-2.2 1.671 2 2 0 0 1-.25.47c-.02 0-.38-.42-.811-.931a18.88 18.88 0 0 1 4.064-28.114 18.77 18.77 0 0 1 12.171-2.972"></path>
        <path
            d="M266.947 25.014a9 9 0 0 0-6.305 5.295 19 19 0 0 0-.791 3.1c-.25 1.251-.57 2.732-.711 3.273a4.37 4.37 0 0 0-.04 2.752 3.18 3.18 0 0 0 1.752 1.742 3 3 0 0 0 .6.19l.22-.48a4.8 4.8 0 0 1 1.121-1.5c.05 0 .03.21-.05.47s-.17.7-.21.961l-.06.48.42-.03c.42-.03.43-.04.55-.5.12-.5.4-.981.55-.981.06 0 .1.32.1.711v.721l.651-.07c1.091-.11 6-.07 7.386.06.731.07 1.731.12 2.222.12a2.3 2.3 0 0 0 1.411-.26 3.88 3.88 0 0 0 1.6-1.762 10.2 10.2 0 0 0 .22-2.923 16.8 16.8 0 0 0-.48-5.545 7.9 7.9 0 0 0-2.192-3.463 7.86 7.86 0 0 0-3.413-2.112 5.8 5.8 0 0 0-2.452-.35 9.5 9.5 0 0 0-2.099.101m5.425 8.437.28.53h1.441l.03-.831.03-.821.24.6a6.4 6.4 0 0 1 .16 3.253 5.7 5.7 0 0 1-5.5 4.3 5.37 5.37 0 0 1-3.953-1.691 5.42 5.42 0 0 1-1.551-5.134 4.6 4.6 0 0 1 .29-.951c.15-.27.15-.26.16.49v.781h7.716l-.07-.38c-.03-.2-.12-.611-.19-.911l-.14-.54.39.38a4 4 0 0 1 .667.926Z"></path>
    </g>
</svg>